<?xml version="1.0" encoding="utf-8"?>
<!-- Generator: Adobe Illustrator 16.0.0, SVG Export Plug-In . SVG Version: 6.00 Build 0)  -->
<!DOCTYPE svg PUBLIC "-//W3C//DTD SVG 1.0//EN" "http://www.w3.org/TR/2001/REC-SVG-20010904/DTD/svg10.dtd">
<svg version="1.0" id="Layer_3" xmlns="http://www.w3.org/2000/svg" xmlns:xlink="http://www.w3.org/1999/xlink" x="0px" y="0px"
	 width="250px" height="70px" viewBox="0 0 250 70" enable-background="new 0 0 250 70" xml:space="preserve">
<g>
	<path fill="#97C83C" d="M75.448,41.103c0,2.991-0.551,5.804-1.652,8.44c-1.102,2.636-2.542,4.891-4.32,6.764
		c-1.826,1.92-3.907,3.435-6.245,4.544c-2.337,1.11-4.757,1.665-7.26,1.665c-3.903,0-7.051-1.267-9.443-3.801
		c-2.393-2.534-3.588-5.784-3.588-9.75c0-3.053,0.551-5.89,1.653-8.511c1.101-2.621,2.534-4.883,4.296-6.788
		c1.778-1.936,3.852-3.462,6.221-4.58c2.368-1.117,4.804-1.676,7.307-1.676c3.84,0,6.972,1.24,9.396,3.718
		C74.236,33.607,75.448,36.933,75.448,41.103z M66.43,53.71c1.118-1.951,1.975-4.155,2.574-6.61
		c0.598-2.455,0.897-4.911,0.897-7.366c0-3.147-0.669-5.658-2.007-7.531c-1.338-1.873-3.305-2.809-5.902-2.809
		c-2.015,0-3.888,0.598-5.619,1.794c-1.731,1.196-3.242,2.951-4.533,5.265c-1.118,2.03-1.956,4.266-2.514,6.705
		c-0.559,2.439-0.838,4.737-0.838,6.894c0,3.305,0.681,5.878,2.042,7.72c1.361,1.841,3.309,2.762,5.843,2.762
		c2.156,0,4.092-0.645,5.808-1.936S65.312,55.678,66.43,53.71z"/>
	<path fill="#97C83C" d="M90.087,25.521l-6.601,28.425c-0.143,0.598-0.276,1.196-0.403,1.794c-0.126,0.599-0.189,1.086-0.189,1.464
		c0,0.897,0.2,1.511,0.601,1.841c0.401,0.331,1.049,0.496,1.945,0.496c0.314,0,0.781-0.039,1.402-0.118
		c0.621-0.079,1.088-0.173,1.402-0.283l-0.354,1.511c-1.417,0.567-2.507,0.968-3.27,1.204c-0.763,0.236-1.625,0.354-2.585,0.354
		c-1.259,0-2.215-0.327-2.869-0.98c-0.653-0.653-0.979-1.46-0.979-2.421c0-0.362,0.035-0.74,0.106-1.134
		c0.071-0.394,0.169-0.89,0.295-1.488l5.754-24.876c0.11-0.488,0.185-0.827,0.225-1.016c0.039-0.188,0.059-0.425,0.059-0.709
		c0-0.566-0.095-1.003-0.285-1.311c-0.189-0.307-0.458-0.54-0.806-0.697c-0.332-0.142-0.751-0.236-1.257-0.283
		c-0.506-0.047-1.02-0.103-1.542-0.166l0.331-1.44l8.782-0.52L90.087,25.521z"/>
	<path fill="#97C83C" d="M102.692,59.14l-0.354,1.511c-1.448,0.583-2.605,0.988-3.471,1.216s-1.605,0.342-2.219,0.342
		c-1.259,0-2.204-0.327-2.833-0.98c-0.629-0.654-0.944-1.461-0.944-2.423c0-0.362,0.031-0.74,0.095-1.134
		c0.063-0.394,0.165-0.89,0.307-1.489l2.495-10.044c0.125-0.551,0.247-1.142,0.365-1.772c0.118-0.63,0.177-1.166,0.177-1.607
		c0-0.882-0.146-1.469-0.436-1.76c-0.291-0.292-0.884-0.438-1.779-0.438c-0.346,0-0.805,0.056-1.378,0.166
		c-0.573,0.11-1.009,0.205-1.308,0.283l0.354-1.511c1.227-0.551,2.328-0.96,3.303-1.228c0.976-0.267,1.746-0.401,2.313-0.401
		c1.29,0,2.226,0.308,2.808,0.922c0.582,0.615,0.873,1.442,0.873,2.481c0,0.284-0.032,0.67-0.094,1.159
		c-0.063,0.488-0.158,0.977-0.283,1.465L98.173,53.94c-0.156,0.615-0.293,1.217-0.411,1.808c-0.117,0.591-0.176,1.075-0.176,1.454
		c0,0.898,0.2,1.513,0.6,1.844c0.4,0.331,1.047,0.496,1.941,0.496c0.298,0,0.725-0.039,1.282-0.118
		C101.967,59.345,102.395,59.25,102.692,59.14z M104.369,28.945c0,0.897-0.292,1.68-0.874,2.349
		c-0.583,0.669-1.307,1.003-2.172,1.003c-0.803,0-1.496-0.319-2.078-0.956c-0.583-0.638-0.874-1.365-0.874-2.184
		c0-0.865,0.291-1.621,0.874-2.266c0.582-0.646,1.275-0.968,2.078-0.968c0.897,0,1.629,0.303,2.195,0.909
		C104.085,27.438,104.369,28.142,104.369,28.945z"/>
	<path fill="#97C83C" d="M128.591,42.24c0,2.395-0.362,4.825-1.086,7.291c-0.724,2.465-1.716,4.62-2.975,6.462
		c-1.275,1.907-2.794,3.455-4.557,4.644c-1.763,1.189-3.699,1.784-5.808,1.784c-2.062,0-3.707-0.572-4.934-1.714
		c-1.228-1.142-1.842-2.674-1.842-4.597c0-0.362,0.043-0.772,0.13-1.229c0.086-0.457,0.146-0.764,0.177-0.922l2.054-7.563
		c0.157-0.615,0.295-1.217,0.414-1.808c0.118-0.591,0.177-1.107,0.177-1.548c0-0.882-0.153-1.473-0.46-1.772
		c-0.307-0.299-0.909-0.449-1.806-0.449c-0.331,0-0.779,0.068-1.346,0.203c-0.567,0.136-0.992,0.241-1.275,0.316l0.354-1.5
		c1.229-0.547,2.319-0.969,3.271-1.266c0.953-0.296,1.712-0.445,2.279-0.445c1.26,0,2.193,0.292,2.799,0.875
		c0.606,0.583,0.909,1.426,0.909,2.529c0,0.315-0.028,0.698-0.083,1.146c-0.056,0.449-0.154,0.941-0.295,1.477l-2.271,8.815
		c-0.157,0.599-0.275,1.174-0.354,1.726c-0.079,0.552-0.118,0.906-0.118,1.063c0,0.819,0.13,1.485,0.39,1.998
		c0.26,0.512,0.586,0.91,0.979,1.193c0.378,0.268,0.791,0.457,1.24,0.567c0.449,0.11,0.909,0.166,1.381,0.166
		c1.07,0,2.176-0.339,3.317-1.016c1.141-0.677,2.137-1.56,2.987-2.647c0.928-1.181,1.676-2.501,2.243-3.958
		c0.566-1.458,0.85-3.068,0.85-4.833c0-0.945-0.129-1.674-0.389-2.186c-0.26-0.512-0.547-0.957-0.862-1.335
		c-0.315-0.394-0.602-0.808-0.862-1.241s-0.39-1.044-0.39-1.832c0-0.897,0.299-1.583,0.897-2.056
		c0.598-0.472,1.228-0.709,1.889-0.709c0.928,0,1.656,0.375,2.184,1.123C128.328,39.74,128.591,40.823,128.591,42.24z"/>
	<path fill="#97C83C" d="M151.94,42.788c0,1.671-0.523,3.106-1.57,4.304c-1.047,1.198-2.57,2.152-4.568,2.861
		c-1.463,0.537-2.943,0.97-4.438,1.301c-1.496,0.331-3.148,0.606-4.959,0.827c0,2.487,0.461,4.388,1.381,5.702
		c0.922,1.314,2.271,1.971,4.049,1.971c1.574,0,2.963-0.393,4.168-1.181c1.203-0.787,2.389-1.959,3.553-3.518l1.346,0.992
		c-1.26,1.92-2.834,3.455-4.723,4.604c-1.889,1.149-3.848,1.724-5.877,1.724c-2.787,0-4.916-0.78-6.387-2.339
		c-1.472-1.56-2.208-3.773-2.208-6.641c0-1.985,0.311-3.879,0.933-5.683c0.622-1.804,1.53-3.454,2.727-4.951
		c1.166-1.465,2.593-2.647,4.285-3.545c1.691-0.897,3.561-1.347,5.607-1.347c2.266,0,3.947,0.461,5.041,1.383
		C151.393,40.174,151.94,41.353,151.94,42.788z M147.596,42.207c0-0.612-0.088-1.095-0.26-1.449
		c-0.174-0.354-0.395-0.616-0.662-0.789c-0.283-0.188-0.582-0.306-0.896-0.354c-0.314-0.047-0.637-0.071-0.969-0.071
		c-1.889,0-3.631,1.037-5.229,3.11s-2.609,4.656-3.033,7.75c1.102-0.157,2.344-0.38,3.73-0.671c1.385-0.29,2.533-0.671,3.445-1.142
		c1.307-0.675,2.279-1.543,2.916-2.604C147.278,44.928,147.596,43.667,147.596,42.207z"/>
	<path fill="#97C83C" d="M176.186,32.793c0,1.259-0.236,2.396-0.708,3.412c-0.473,1.015-1.079,1.877-1.818,2.585
		c-0.756,0.724-1.59,1.361-2.502,1.912c-0.913,0.551-1.921,1.071-3.022,1.558c-1.117,0.488-2.479,1.161-4.084,2.019
		c-1.605,0.858-2.967,1.72-4.084,2.585h14.731l-0.756,3.281h-17.777l0.614-2.62c1.022-1.259,2.345-2.388,3.966-3.388
		c1.621-0.999,3.155-1.932,4.604-2.797c0.677-0.409,1.468-0.952,2.373-1.629s1.602-1.314,2.09-1.913
		c0.613-0.739,1.094-1.511,1.439-2.313c0.347-0.803,0.52-1.778,0.52-2.927c0-1.102-0.322-1.959-0.968-2.574
		c-0.646-0.614-1.503-0.92-2.573-0.92c-0.803,0-1.555,0.146-2.255,0.437c-0.7,0.292-1.239,0.665-1.617,1.122
		c0,0.142,0.012,0.342,0.035,0.602c0.024,0.26,0.036,0.563,0.036,0.909c0,1.055-0.236,1.85-0.709,2.385
		c-0.472,0.535-1.259,0.803-2.36,0.803c-0.614,0-1.055-0.177-1.322-0.531c-0.268-0.354-0.401-0.768-0.401-1.24
		c0-0.661,0.232-1.341,0.696-2.042c0.464-0.7,1.113-1.365,1.948-1.995c0.803-0.614,1.782-1.117,2.938-1.511
		c1.157-0.393,2.412-0.59,3.766-0.59c2.125,0,3.856,0.477,5.194,1.428C175.517,29.791,176.186,31.109,176.186,32.793z"/>
	<path fill="#97C83C" d="M211.929,41.103c0,2.991-0.552,5.804-1.653,8.44s-2.542,4.891-4.32,6.764
		c-1.826,1.92-3.907,3.435-6.244,4.544c-2.337,1.11-4.757,1.665-7.26,1.665c-3.903,0-7.051-1.267-9.443-3.801
		s-3.588-5.784-3.588-9.75c0-3.053,0.55-5.89,1.652-8.511c1.102-2.621,2.533-4.883,4.297-6.788c1.778-1.936,3.852-3.462,6.221-4.58
		c2.368-1.117,4.804-1.676,7.307-1.676c3.84,0,6.973,1.24,9.396,3.718C210.716,33.607,211.929,36.933,211.929,41.103z
		 M202.911,53.71c1.117-1.951,1.975-4.155,2.573-6.61c0.598-2.455,0.896-4.911,0.896-7.366c0-3.147-0.669-5.658-2.006-7.531
		c-1.338-1.873-3.306-2.809-5.902-2.809c-2.015,0-3.888,0.598-5.619,1.794c-1.731,1.196-3.242,2.951-4.532,5.265
		c-1.118,2.03-1.956,4.266-2.515,6.705s-0.838,4.737-0.838,6.894c0,3.305,0.681,5.878,2.042,7.72
		c1.361,1.841,3.309,2.762,5.843,2.762c2.156,0,4.092-0.645,5.808-1.936S201.792,55.678,202.911,53.71z"/>
	<path fill="#97C83C" d="M225.385,59.14l-0.354,1.511c-1.448,0.583-2.605,0.988-3.471,1.216s-1.605,0.342-2.219,0.342
		c-1.26,0-2.204-0.327-2.833-0.98c-0.63-0.654-0.944-1.461-0.944-2.423c0-0.362,0.031-0.74,0.094-1.134
		c0.063-0.394,0.166-0.89,0.308-1.489l2.494-10.044c0.125-0.551,0.247-1.142,0.365-1.772c0.118-0.63,0.177-1.166,0.177-1.607
		c0-0.882-0.146-1.469-0.437-1.76c-0.29-0.292-0.884-0.438-1.779-0.438c-0.345,0-0.805,0.056-1.378,0.166
		c-0.573,0.11-1.01,0.205-1.308,0.283l0.354-1.511c1.228-0.551,2.328-0.96,3.304-1.228c0.976-0.267,1.746-0.401,2.313-0.401
		c1.29,0,2.227,0.308,2.809,0.922c0.582,0.615,0.873,1.442,0.873,2.481c0,0.284-0.031,0.67-0.094,1.159
		c-0.063,0.488-0.158,0.977-0.284,1.465l-2.509,10.044c-0.156,0.615-0.293,1.217-0.41,1.808c-0.117,0.591-0.176,1.075-0.176,1.454
		c0,0.898,0.2,1.513,0.6,1.844c0.4,0.331,1.048,0.496,1.941,0.496c0.298,0,0.726-0.039,1.282-0.118
		C224.66,59.345,225.087,59.25,225.385,59.14z M227.062,28.945c0,0.897-0.292,1.68-0.874,2.349s-1.307,1.003-2.172,1.003
		c-0.803,0-1.495-0.319-2.077-0.956c-0.583-0.638-0.874-1.365-0.874-2.184c0-0.865,0.291-1.621,0.874-2.266
		c0.582-0.646,1.274-0.968,2.077-0.968c0.897,0,1.629,0.303,2.196,0.909C226.779,27.438,227.062,28.142,227.062,28.945z"/>
	<path fill="#97C83C" d="M240.945,25.521l-6.601,28.425c-0.143,0.598-0.276,1.196-0.402,1.794c-0.127,0.599-0.189,1.086-0.189,1.464
		c0,0.897,0.2,1.511,0.601,1.841c0.4,0.331,1.049,0.496,1.945,0.496c0.313,0,0.781-0.039,1.401-0.118
		c0.621-0.079,1.089-0.173,1.403-0.283l-0.354,1.511c-1.417,0.567-2.507,0.968-3.27,1.204c-0.764,0.236-1.626,0.354-2.585,0.354
		c-1.26,0-2.216-0.327-2.869-0.98c-0.653-0.653-0.979-1.46-0.979-2.421c0-0.362,0.035-0.74,0.106-1.134
		c0.07-0.394,0.169-0.89,0.295-1.488l5.754-24.876c0.11-0.488,0.185-0.827,0.225-1.016c0.039-0.188,0.059-0.425,0.059-0.709
		c0-0.566-0.095-1.003-0.284-1.311s-0.458-0.54-0.806-0.697c-0.332-0.142-0.751-0.236-1.258-0.283
		c-0.506-0.047-1.02-0.103-1.541-0.166l0.331-1.44l8.782-0.52L240.945,25.521z"/>
</g>
<path fill="#97C83C" d="M8.85,8.714c0,0,6.295-2.77,17.375,0c11.081,2.77,21.909,9.066,21.909,9.066s-14.354,4.281-32.063-1.357
	C9.541,14.344,8.85,8.714,8.85,8.714z"/>
<path fill="#97C83C" d="M39.559,24.398c0,0,4.295-1.212,6.057-3.228c1.763-2.015,2.519-3.391,2.519-3.391s0.881,4.461-2.015,7.388
	C43.223,28.096,39.559,24.398,39.559,24.398z"/>
<linearGradient id="SVGID_1_" gradientUnits="userSpaceOnUse" x1="42.6235" y1="23.7642" x2="42.6235" y2="61.8252">
	<stop  offset="0" style="stop-color:#97C83C"/>
	<stop  offset="1" style="stop-color:#507723"/>
</linearGradient>
<path fill="url(#SVGID_1_)" d="M58.416,46.012c-2.11,10.356-10.89,17.313-19.613,15.536c-8.72-1.777-14.082-11.614-11.971-21.971
	c2.11-10.356,10.892-17.313,19.613-15.536C55.167,25.818,60.526,35.655,58.416,46.012z"/>
<path opacity="0.5" d="M46.939,24.155c0,0-0.567,0.667-1.764,1.013c-1.196,0.347-2.234,0-2.234,0s1.982,1.417,4.124,0.347
	C48.868,24.612,46.939,24.155,46.939,24.155z"/>
</svg>
