<?xml version="1.0" encoding="utf-8"?>
<!-- Generator: Adobe Illustrator 16.0.0, SVG Export Plug-In . SVG Version: 6.00 Build 0)  -->
<!DOCTYPE svg PUBLIC "-//W3C//DTD SVG 1.1//EN" "http://www.w3.org/Graphics/SVG/1.1/DTD/svg11.dtd">
<svg version="1.1" xmlns="http://www.w3.org/2000/svg" xmlns:xlink="http://www.w3.org/1999/xlink" x="0px" y="0px" width="320px"
	 height="70px" viewBox="0 0 320 70" enable-background="new 0 0 320 70" xml:space="preserve">
<g id="Layer_1">
</g>
<g id="Layer_3">
	<g>
		<g>
			<path fill="#97C83C" d="M110.551,41.103c0,2.991-0.551,5.804-1.652,8.44c-1.102,2.636-2.542,4.891-4.32,6.764
				c-1.826,1.92-3.907,3.435-6.245,4.544c-2.337,1.11-4.757,1.665-7.26,1.665c-3.903,0-7.051-1.267-9.443-3.801
				c-2.393-2.534-3.588-5.784-3.588-9.75c0-3.053,0.551-5.89,1.653-8.511c1.101-2.621,2.534-4.883,4.296-6.788
				c1.778-1.936,3.852-3.462,6.221-4.58c2.368-1.117,4.804-1.676,7.307-1.676c3.84,0,6.972,1.24,9.396,3.718
				C109.339,33.607,110.551,36.933,110.551,41.103z M101.533,53.71c1.118-1.951,1.975-4.155,2.574-6.61
				c0.598-2.455,0.897-4.911,0.897-7.366c0-3.147-0.669-5.658-2.007-7.531c-1.338-1.873-3.305-2.809-5.902-2.809
				c-2.015,0-3.888,0.598-5.619,1.794c-1.731,1.196-3.242,2.951-4.533,5.265c-1.118,2.03-1.956,4.266-2.514,6.705
				c-0.559,2.439-0.838,4.737-0.838,6.894c0,3.305,0.681,5.878,2.042,7.72c1.361,1.841,3.309,2.762,5.843,2.762
				c2.156,0,4.092-0.645,5.808-1.936S100.415,55.678,101.533,53.71z"/>
			<path fill="#97C83C" d="M125.19,25.521l-6.601,28.425c-0.143,0.598-0.276,1.196-0.403,1.794
				c-0.126,0.599-0.189,1.086-0.189,1.464c0,0.897,0.2,1.511,0.601,1.841c0.401,0.331,1.049,0.496,1.945,0.496
				c0.314,0,0.781-0.039,1.402-0.118c0.621-0.079,1.088-0.173,1.402-0.283l-0.354,1.511c-1.417,0.567-2.507,0.968-3.27,1.204
				c-0.763,0.236-1.625,0.354-2.585,0.354c-1.259,0-2.215-0.327-2.869-0.98c-0.653-0.653-0.979-1.46-0.979-2.421
				c0-0.362,0.035-0.74,0.106-1.134c0.071-0.394,0.169-0.89,0.295-1.488l5.754-24.876c0.11-0.488,0.185-0.827,0.225-1.016
				c0.039-0.188,0.059-0.425,0.059-0.709c0-0.566-0.095-1.003-0.285-1.311c-0.189-0.307-0.458-0.54-0.806-0.697
				c-0.332-0.142-0.751-0.236-1.257-0.283c-0.506-0.047-1.02-0.103-1.542-0.166l0.331-1.44l8.782-0.52L125.19,25.521z"/>
			<path fill="#97C83C" d="M137.795,59.14l-0.354,1.511c-1.448,0.583-2.605,0.988-3.471,1.216s-1.605,0.342-2.219,0.342
				c-1.259,0-2.204-0.327-2.833-0.98c-0.629-0.654-0.944-1.461-0.944-2.423c0-0.362,0.031-0.74,0.095-1.134
				c0.063-0.394,0.165-0.89,0.307-1.489l2.495-10.044c0.125-0.551,0.247-1.142,0.365-1.772c0.118-0.63,0.177-1.166,0.177-1.607
				c0-0.882-0.146-1.469-0.436-1.76c-0.291-0.292-0.884-0.438-1.779-0.438c-0.346,0-0.805,0.056-1.378,0.166
				c-0.573,0.11-1.009,0.205-1.308,0.283l0.354-1.511c1.227-0.551,2.328-0.96,3.303-1.228c0.976-0.267,1.746-0.401,2.313-0.401
				c1.29,0,2.226,0.308,2.808,0.922c0.582,0.615,0.873,1.442,0.873,2.481c0,0.284-0.032,0.67-0.094,1.159
				c-0.063,0.488-0.158,0.977-0.283,1.465l-2.509,10.044c-0.156,0.615-0.293,1.217-0.411,1.808
				c-0.117,0.591-0.176,1.075-0.176,1.454c0,0.898,0.2,1.513,0.6,1.844c0.4,0.331,1.047,0.496,1.941,0.496
				c0.298,0,0.725-0.039,1.282-0.118C137.07,59.345,137.498,59.25,137.795,59.14z M139.472,28.945c0,0.897-0.292,1.68-0.874,2.349
				c-0.583,0.669-1.307,1.003-2.172,1.003c-0.803,0-1.496-0.319-2.078-0.956c-0.583-0.638-0.874-1.365-0.874-2.184
				c0-0.865,0.291-1.621,0.874-2.266c0.582-0.646,1.275-0.968,2.078-0.968c0.897,0,1.629,0.303,2.195,0.909
				C139.188,27.438,139.472,28.142,139.472,28.945z"/>
			<path fill="#97C83C" d="M163.694,42.24c0,2.395-0.362,4.825-1.086,7.291c-0.724,2.465-1.716,4.62-2.975,6.462
				c-1.275,1.907-2.794,3.455-4.557,4.644c-1.763,1.189-3.699,1.784-5.808,1.784c-2.062,0-3.707-0.572-4.934-1.714
				c-1.228-1.142-1.842-2.674-1.842-4.597c0-0.362,0.043-0.772,0.13-1.229c0.086-0.457,0.146-0.764,0.177-0.922l2.054-7.563
				c0.157-0.615,0.295-1.217,0.414-1.808c0.118-0.591,0.177-1.107,0.177-1.548c0-0.882-0.153-1.473-0.46-1.772
				c-0.307-0.299-0.909-0.449-1.806-0.449c-0.331,0-0.779,0.068-1.346,0.203c-0.567,0.136-0.992,0.241-1.275,0.316l0.354-1.5
				c1.229-0.547,2.319-0.969,3.271-1.266c0.953-0.296,1.712-0.445,2.279-0.445c1.26,0,2.193,0.292,2.799,0.875
				c0.606,0.583,0.909,1.426,0.909,2.529c0,0.315-0.028,0.698-0.083,1.146c-0.056,0.449-0.154,0.941-0.295,1.477l-2.271,8.815
				c-0.157,0.599-0.275,1.174-0.354,1.726c-0.079,0.552-0.118,0.906-0.118,1.063c0,0.819,0.13,1.485,0.39,1.998
				c0.26,0.512,0.586,0.91,0.979,1.193c0.378,0.268,0.791,0.457,1.24,0.567c0.449,0.11,0.909,0.166,1.381,0.166
				c1.07,0,2.176-0.339,3.317-1.016c1.141-0.677,2.137-1.56,2.987-2.647c0.928-1.181,1.676-2.501,2.243-3.958
				c0.566-1.458,0.85-3.068,0.85-4.833c0-0.945-0.129-1.674-0.389-2.186c-0.26-0.512-0.547-0.957-0.862-1.335
				c-0.315-0.394-0.602-0.808-0.862-1.241s-0.39-1.044-0.39-1.832c0-0.897,0.299-1.583,0.897-2.056
				c0.598-0.472,1.228-0.709,1.889-0.709c0.928,0,1.656,0.375,2.184,1.123C163.431,39.74,163.694,40.823,163.694,42.24z"/>
			<path fill="#97C83C" d="M187.043,42.788c0,1.671-0.523,3.106-1.57,4.304c-1.047,1.198-2.57,2.152-4.568,2.861
				c-1.463,0.537-2.943,0.97-4.438,1.301c-1.496,0.331-3.148,0.606-4.959,0.827c0,2.487,0.461,4.388,1.381,5.702
				c0.922,1.314,2.271,1.971,4.049,1.971c1.574,0,2.963-0.393,4.168-1.181c1.203-0.787,2.389-1.959,3.553-3.518l1.346,0.992
				c-1.26,1.92-2.834,3.455-4.723,4.604c-1.889,1.149-3.848,1.724-5.877,1.724c-2.787,0-4.916-0.78-6.387-2.339
				c-1.472-1.56-2.208-3.773-2.208-6.641c0-1.985,0.311-3.879,0.933-5.683c0.622-1.804,1.53-3.454,2.727-4.951
				c1.166-1.465,2.593-2.647,4.285-3.545c1.691-0.897,3.561-1.347,5.607-1.347c2.266,0,3.947,0.461,5.041,1.383
				C186.496,40.174,187.043,41.353,187.043,42.788z M182.699,42.207c0-0.612-0.088-1.095-0.26-1.449
				c-0.174-0.354-0.395-0.616-0.662-0.789c-0.283-0.188-0.582-0.306-0.896-0.354c-0.314-0.047-0.637-0.071-0.969-0.071
				c-1.889,0-3.631,1.037-5.229,3.11s-2.609,4.656-3.033,7.75c1.102-0.157,2.344-0.38,3.73-0.671
				c1.385-0.29,2.533-0.671,3.445-1.142c1.307-0.675,2.279-1.543,2.916-2.604C182.381,44.928,182.699,43.667,182.699,42.207z"/>
			<path fill="#97C83C" d="M211.289,32.793c0,1.259-0.236,2.396-0.708,3.412c-0.473,1.015-1.079,1.877-1.818,2.585
				c-0.756,0.724-1.59,1.361-2.502,1.912c-0.913,0.551-1.921,1.071-3.022,1.558c-1.117,0.488-2.479,1.161-4.084,2.019
				c-1.605,0.858-2.967,1.72-4.084,2.585h14.731l-0.756,3.281h-17.777l0.614-2.62c1.022-1.259,2.345-2.388,3.966-3.388
				c1.621-0.999,3.155-1.932,4.604-2.797c0.677-0.409,1.468-0.952,2.373-1.629s1.602-1.314,2.09-1.913
				c0.613-0.739,1.094-1.511,1.439-2.313c0.347-0.803,0.52-1.778,0.52-2.927c0-1.102-0.322-1.959-0.968-2.574
				c-0.646-0.614-1.503-0.92-2.573-0.92c-0.803,0-1.555,0.146-2.255,0.437c-0.7,0.292-1.239,0.665-1.617,1.122
				c0,0.142,0.012,0.342,0.035,0.602c0.024,0.26,0.036,0.563,0.036,0.909c0,1.055-0.236,1.85-0.709,2.385
				c-0.472,0.535-1.259,0.803-2.36,0.803c-0.614,0-1.055-0.177-1.322-0.531c-0.268-0.354-0.401-0.768-0.401-1.24
				c0-0.661,0.232-1.341,0.696-2.042c0.464-0.7,1.113-1.365,1.948-1.995c0.803-0.614,1.782-1.117,2.938-1.511
				c1.157-0.393,2.412-0.59,3.766-0.59c2.125,0,3.856,0.477,5.194,1.428C210.62,29.791,211.289,31.109,211.289,32.793z"/>
			<path fill="#97C83C" d="M247.032,41.103c0,2.991-0.552,5.804-1.653,8.44s-2.542,4.891-4.32,6.764
				c-1.826,1.92-3.907,3.435-6.244,4.544c-2.337,1.11-4.757,1.665-7.26,1.665c-3.903,0-7.051-1.267-9.443-3.801
				s-3.588-5.784-3.588-9.75c0-3.053,0.55-5.89,1.652-8.511c1.102-2.621,2.533-4.883,4.297-6.788
				c1.778-1.936,3.852-3.462,6.221-4.58c2.368-1.117,4.804-1.676,7.307-1.676c3.84,0,6.973,1.24,9.396,3.718
				C245.819,33.607,247.032,36.933,247.032,41.103z M238.014,53.71c1.117-1.951,1.975-4.155,2.573-6.61
				c0.598-2.455,0.896-4.911,0.896-7.366c0-3.147-0.669-5.658-2.006-7.531c-1.338-1.873-3.306-2.809-5.902-2.809
				c-2.015,0-3.888,0.598-5.619,1.794c-1.731,1.196-3.242,2.951-4.532,5.265c-1.118,2.03-1.956,4.266-2.515,6.705
				s-0.838,4.737-0.838,6.894c0,3.305,0.681,5.878,2.042,7.72c1.361,1.841,3.309,2.762,5.843,2.762c2.156,0,4.092-0.645,5.808-1.936
				S236.896,55.678,238.014,53.71z"/>
			<path fill="#97C83C" d="M260.488,59.14l-0.354,1.511c-1.448,0.583-2.605,0.988-3.471,1.216s-1.605,0.342-2.219,0.342
				c-1.26,0-2.204-0.327-2.833-0.98c-0.63-0.654-0.944-1.461-0.944-2.423c0-0.362,0.031-0.74,0.094-1.134
				c0.063-0.394,0.166-0.89,0.308-1.489l2.494-10.044c0.125-0.551,0.247-1.142,0.365-1.772c0.118-0.63,0.177-1.166,0.177-1.607
				c0-0.882-0.146-1.469-0.437-1.76c-0.29-0.292-0.884-0.438-1.779-0.438c-0.345,0-0.805,0.056-1.378,0.166
				c-0.573,0.11-1.01,0.205-1.308,0.283l0.354-1.511c1.228-0.551,2.328-0.96,3.304-1.228c0.976-0.267,1.746-0.401,2.313-0.401
				c1.29,0,2.227,0.308,2.809,0.922c0.582,0.615,0.873,1.442,0.873,2.481c0,0.284-0.031,0.67-0.094,1.159
				c-0.063,0.488-0.158,0.977-0.284,1.465l-2.509,10.044c-0.156,0.615-0.293,1.217-0.41,1.808c-0.117,0.591-0.176,1.075-0.176,1.454
				c0,0.898,0.2,1.513,0.6,1.844c0.4,0.331,1.048,0.496,1.941,0.496c0.298,0,0.726-0.039,1.282-0.118
				C259.763,59.345,260.19,59.25,260.488,59.14z M262.165,28.945c0,0.897-0.292,1.68-0.874,2.349s-1.307,1.003-2.172,1.003
				c-0.803,0-1.495-0.319-2.077-0.956c-0.583-0.638-0.874-1.365-0.874-2.184c0-0.865,0.291-1.621,0.874-2.266
				c0.582-0.646,1.274-0.968,2.077-0.968c0.897,0,1.629,0.303,2.196,0.909C261.882,27.438,262.165,28.142,262.165,28.945z"/>
			<path fill="#97C83C" d="M276.048,25.521l-6.601,28.425c-0.143,0.598-0.276,1.196-0.402,1.794
				c-0.127,0.599-0.189,1.086-0.189,1.464c0,0.897,0.2,1.511,0.601,1.841c0.4,0.331,1.049,0.496,1.945,0.496
				c0.313,0,0.781-0.039,1.401-0.118c0.621-0.079,1.089-0.173,1.403-0.283l-0.354,1.511c-1.417,0.567-2.507,0.968-3.27,1.204
				c-0.764,0.236-1.626,0.354-2.585,0.354c-1.26,0-2.216-0.327-2.869-0.98c-0.653-0.653-0.979-1.46-0.979-2.421
				c0-0.362,0.035-0.74,0.106-1.134c0.07-0.394,0.169-0.89,0.295-1.488l5.754-24.876c0.11-0.488,0.185-0.827,0.225-1.016
				c0.039-0.188,0.059-0.425,0.059-0.709c0-0.566-0.095-1.003-0.284-1.311s-0.458-0.54-0.806-0.697
				c-0.332-0.142-0.751-0.236-1.258-0.283c-0.506-0.047-1.02-0.103-1.541-0.166l0.331-1.44l8.782-0.52L276.048,25.521z"/>
		</g>
		<g>
			<defs>
				<path id="SVGID_11_" d="M110.552,41.104c0,2.99-0.551,5.804-1.653,8.44c-1.102,2.636-2.542,4.891-4.32,6.764
					c-1.826,1.919-3.907,3.435-6.245,4.544c-2.338,1.11-4.757,1.665-7.26,1.665c-3.903,0-7.051-1.268-9.444-3.801
					c-2.392-2.534-3.588-5.784-3.588-9.75c0-3.054,0.551-5.891,1.653-8.511c1.101-2.621,2.534-4.883,4.296-6.788
					c1.778-1.936,3.852-3.463,6.221-4.58c2.369-1.118,4.805-1.677,7.307-1.677c3.84,0,6.973,1.24,9.396,3.719
					C109.34,33.609,110.552,36.933,110.552,41.104z M101.534,53.711c1.117-1.952,1.975-4.155,2.574-6.61
					c0.598-2.455,0.896-4.911,0.896-7.366c0-3.147-0.668-5.659-2.006-7.531c-1.338-1.873-3.305-2.81-5.902-2.81
					c-2.015,0-3.888,0.598-5.619,1.794c-1.731,1.196-3.242,2.951-4.533,5.265c-1.117,2.031-1.955,4.265-2.514,6.705
					c-0.559,2.439-0.838,4.738-0.838,6.894c0,3.305,0.681,5.878,2.042,7.72s3.309,2.762,5.843,2.762
					c2.156,0,4.093-0.646,5.809-1.936C99,57.307,100.416,55.678,101.534,53.711z M125.19,25.522l-6.602,28.424
					c-0.142,0.598-0.275,1.197-0.402,1.794c-0.125,0.598-0.189,1.086-0.189,1.464c0,0.897,0.202,1.511,0.602,1.841
					c0.4,0.331,1.048,0.496,1.945,0.496c0.314,0,0.781-0.039,1.401-0.118c0.621-0.078,1.088-0.173,1.403-0.283l-0.354,1.511
					c-1.417,0.567-2.506,0.968-3.269,1.205c-0.764,0.236-1.625,0.354-2.585,0.354c-1.259,0-2.215-0.326-2.869-0.981
					c-0.653-0.653-0.98-1.461-0.98-2.421c0-0.361,0.036-0.739,0.107-1.134c0.07-0.394,0.168-0.89,0.295-1.488l5.753-24.876
					c0.11-0.489,0.186-0.827,0.225-1.016c0.038-0.188,0.059-0.425,0.059-0.708c0-0.567-0.095-1.004-0.286-1.312
					c-0.189-0.307-0.458-0.54-0.805-0.697c-0.332-0.142-0.751-0.236-1.257-0.283c-0.506-0.047-1.02-0.102-1.542-0.165l0.332-1.44
					l8.781-0.52L125.19,25.522z M137.796,59.141l-0.354,1.511c-1.448,0.582-2.604,0.988-3.47,1.216
					c-0.866,0.228-1.605,0.342-2.219,0.342c-1.259,0-2.204-0.327-2.833-0.981c-0.63-0.654-0.945-1.461-0.945-2.423
					c0-0.361,0.032-0.74,0.094-1.134c0.063-0.394,0.166-0.89,0.307-1.49l2.495-10.044c0.125-0.551,0.247-1.142,0.365-1.772
					c0.118-0.629,0.177-1.166,0.177-1.607c0-0.881-0.146-1.469-0.437-1.76c-0.291-0.292-0.884-0.438-1.779-0.438
					c-0.346,0-0.805,0.055-1.379,0.165c-0.573,0.11-1.009,0.204-1.308,0.283l0.354-1.512c1.226-0.55,2.328-0.959,3.303-1.227
					c0.976-0.268,1.746-0.401,2.313-0.401c1.291,0,2.226,0.307,2.809,0.922c0.583,0.615,0.874,1.441,0.874,2.481
					c0,0.284-0.032,0.67-0.094,1.158c-0.063,0.49-0.158,0.977-0.284,1.466l-2.509,10.044c-0.157,0.614-0.294,1.217-0.411,1.808
					c-0.117,0.591-0.175,1.075-0.175,1.453c0,0.898,0.2,1.513,0.599,1.844c0.4,0.331,1.048,0.496,1.941,0.496
					c0.298,0,0.726-0.039,1.282-0.118C137.07,59.346,137.498,59.251,137.796,59.141z M139.473,28.945
					c0,0.897-0.292,1.68-0.874,2.349c-0.583,0.669-1.306,1.003-2.172,1.003c-0.803,0-1.495-0.319-2.078-0.956
					c-0.582-0.638-0.873-1.366-0.873-2.185c0-0.865,0.291-1.621,0.873-2.267c0.583-0.645,1.275-0.967,2.078-0.967
					c0.897,0,1.628,0.302,2.195,0.909C139.189,27.438,139.473,28.143,139.473,28.945z M163.695,42.241
					c0,2.396-0.362,4.825-1.086,7.291c-0.724,2.465-1.716,4.62-2.975,6.463c-1.275,1.907-2.794,3.455-4.557,4.643
					c-1.763,1.189-3.698,1.785-5.808,1.785c-2.062,0-3.706-0.571-4.934-1.713c-1.228-1.142-1.842-2.675-1.842-4.597
					c0-0.362,0.044-0.772,0.13-1.229c0.086-0.457,0.146-0.764,0.177-0.921l2.054-7.564c0.157-0.614,0.295-1.217,0.414-1.808
					c0.118-0.59,0.177-1.106,0.177-1.547c0-0.883-0.153-1.474-0.461-1.773c-0.306-0.299-0.908-0.449-1.805-0.449
					c-0.331,0-0.779,0.068-1.346,0.204c-0.566,0.135-0.992,0.241-1.275,0.316l0.354-1.501c1.229-0.546,2.318-0.968,3.271-1.265
					c0.953-0.297,1.713-0.446,2.28-0.446c1.261,0,2.193,0.292,2.798,0.875c0.608,0.583,0.911,1.425,0.911,2.529
					c0,0.314-0.027,0.698-0.083,1.146c-0.055,0.45-0.153,0.942-0.294,1.478l-2.271,8.815c-0.157,0.6-0.276,1.175-0.354,1.727
					c-0.08,0.551-0.118,0.905-0.118,1.063c0,0.819,0.13,1.485,0.39,1.997c0.26,0.512,0.586,0.91,0.979,1.193
					c0.378,0.269,0.792,0.458,1.24,0.567c0.449,0.11,0.909,0.166,1.381,0.166c1.07,0,2.175-0.338,3.317-1.017
					c1.141-0.678,2.136-1.56,2.986-2.647c0.929-1.182,1.676-2.501,2.242-3.958c0.567-1.458,0.851-3.069,0.851-4.833
					c0-0.946-0.13-1.675-0.39-2.187c-0.259-0.512-0.546-0.957-0.861-1.336c-0.315-0.393-0.602-0.807-0.862-1.24
					c-0.26-0.433-0.39-1.043-0.39-1.831c0-0.898,0.299-1.583,0.897-2.057c0.598-0.473,1.228-0.709,1.888-0.709
					c0.929,0,1.657,0.375,2.185,1.122C163.431,39.741,163.695,40.823,163.695,42.241z M187.043,42.788
					c0,1.671-0.522,3.106-1.569,4.304c-1.046,1.198-2.569,2.151-4.568,2.861c-1.464,0.537-2.943,0.969-4.438,1.301
					c-1.496,0.332-3.148,0.607-4.958,0.828c0,2.487,0.461,4.387,1.38,5.701c0.921,1.314,2.271,1.971,4.05,1.971
					c1.573,0,2.963-0.394,4.167-1.18c1.204-0.788,2.389-1.96,3.553-3.519l1.346,0.992c-1.259,1.921-2.833,3.455-4.722,4.603
					c-1.889,1.149-3.849,1.723-5.879,1.723c-2.785,0-4.914-0.779-6.386-2.339c-1.471-1.56-2.208-3.773-2.208-6.641
					c0-1.984,0.311-3.878,0.933-5.683c0.622-1.804,1.531-3.455,2.727-4.95c1.165-1.466,2.594-2.647,4.286-3.544
					c1.692-0.898,3.561-1.348,5.606-1.348c2.267,0,3.946,0.461,5.04,1.383C186.497,40.175,187.043,41.354,187.043,42.788z
					 M182.699,42.208c0-0.612-0.086-1.094-0.259-1.449c-0.174-0.354-0.394-0.616-0.661-0.789c-0.284-0.188-0.583-0.307-0.898-0.353
					c-0.313-0.048-0.637-0.071-0.966-0.071c-1.889,0-3.634,1.037-5.229,3.109c-1.598,2.074-2.609,4.657-3.035,7.751
					c1.102-0.158,2.346-0.381,3.731-0.671c1.384-0.291,2.533-0.671,3.446-1.143c1.306-0.674,2.278-1.542,2.915-2.603
					C182.381,44.928,182.699,43.668,182.699,42.208z M211.289,32.794c0,1.258-0.236,2.396-0.707,3.411
					c-0.474,1.016-1.079,1.877-1.818,2.586c-0.756,0.724-1.59,1.361-2.503,1.912s-1.92,1.071-3.022,1.558
					c-1.116,0.488-2.479,1.161-4.083,2.018c-1.606,0.858-2.968,1.72-4.085,2.585h14.732l-0.756,3.281H191.27l0.613-2.62
					c1.023-1.259,2.346-2.388,3.966-3.388c1.621-0.999,3.157-1.932,4.604-2.797c0.678-0.41,1.469-0.953,2.374-1.63
					c0.904-0.676,1.602-1.313,2.089-1.912c0.614-0.74,1.094-1.511,1.439-2.313c0.347-0.803,0.521-1.779,0.521-2.928
					c0-1.101-0.323-1.959-0.969-2.572c-0.645-0.614-1.503-0.921-2.572-0.921c-0.803,0-1.556,0.146-2.256,0.437
					c-0.699,0.292-1.238,0.666-1.616,1.122c0,0.142,0.012,0.343,0.035,0.603c0.022,0.259,0.035,0.561,0.035,0.909
					c0,1.054-0.236,1.849-0.709,2.384c-0.472,0.535-1.258,0.802-2.36,0.802c-0.614,0-1.055-0.177-1.322-0.531
					c-0.267-0.354-0.4-0.767-0.4-1.24c0-0.661,0.231-1.341,0.695-2.042c0.465-0.701,1.113-1.366,1.948-1.996
					c0.802-0.613,1.783-1.118,2.94-1.511c1.156-0.393,2.412-0.59,3.765-0.59c2.125,0,3.855,0.476,5.194,1.429
					C210.62,29.792,211.289,31.11,211.289,32.794z M247.033,41.104c0,2.99-0.552,5.804-1.652,8.44
					c-1.102,2.636-2.541,4.891-4.321,6.764c-1.826,1.919-3.907,3.435-6.245,4.544c-2.336,1.11-4.757,1.665-7.259,1.665
					c-3.903,0-7.051-1.268-9.443-3.801c-2.393-2.534-3.589-5.784-3.589-9.75c0-3.054,0.551-5.891,1.653-8.511
					c1.102-2.621,2.533-4.883,4.297-6.788c1.778-1.936,3.852-3.463,6.22-4.58c2.369-1.118,4.804-1.677,7.307-1.677
					c3.841,0,6.974,1.24,9.396,3.719C245.821,33.609,247.033,36.933,247.033,41.104z M238.014,53.711
					c1.118-1.952,1.977-4.155,2.575-6.61c0.597-2.455,0.895-4.911,0.895-7.366c0-3.147-0.668-5.659-2.005-7.531
					c-1.339-1.873-3.305-2.81-5.902-2.81c-2.015,0-3.888,0.598-5.619,1.794s-3.241,2.951-4.533,5.265
					c-1.117,2.031-1.955,4.265-2.514,6.705s-0.839,4.738-0.839,6.894c0,3.305,0.681,5.878,2.042,7.72s3.311,2.762,5.844,2.762
					c2.155,0,4.092-0.646,5.807-1.936C235.48,57.307,236.896,55.678,238.014,53.711z M260.489,59.141l-0.354,1.511
					c-1.448,0.582-2.604,0.988-3.472,1.216c-0.864,0.228-1.604,0.342-2.218,0.342c-1.26,0-2.204-0.327-2.834-0.981
					c-0.629-0.654-0.944-1.461-0.944-2.423c0-0.361,0.031-0.74,0.095-1.134s0.166-0.89,0.308-1.49l2.494-10.044
					c0.125-0.551,0.248-1.142,0.366-1.772c0.117-0.629,0.176-1.166,0.176-1.607c0-0.881-0.145-1.469-0.436-1.76
					c-0.291-0.292-0.886-0.438-1.778-0.438c-0.347,0-0.807,0.055-1.383,0.165c-0.568,0.11-1.007,0.204-1.305,0.283l0.354-1.512
					c1.229-0.55,2.33-0.959,3.303-1.227c0.977-0.268,1.745-0.401,2.312-0.401c1.292,0,2.228,0.307,2.81,0.922
					c0.584,0.615,0.875,1.441,0.875,2.481c0,0.284-0.032,0.67-0.095,1.158c-0.063,0.49-0.157,0.977-0.285,1.466l-2.508,10.044
					c-0.156,0.614-0.292,1.217-0.41,1.808c-0.118,0.591-0.175,1.075-0.175,1.453c0,0.898,0.199,1.513,0.602,1.844
					c0.397,0.331,1.044,0.496,1.938,0.496c0.298,0,0.726-0.039,1.282-0.118C259.764,59.346,260.191,59.251,260.489,59.141z
					 M262.166,28.945c0,0.897-0.291,1.68-0.873,2.349c-0.584,0.669-1.307,1.003-2.174,1.003c-0.801,0-1.494-0.319-2.076-0.956
					c-0.582-0.638-0.874-1.366-0.874-2.185c0-0.865,0.292-1.621,0.874-2.267c0.582-0.645,1.275-0.967,2.076-0.967
					c0.898,0,1.631,0.302,2.196,0.909C261.883,27.438,262.166,28.143,262.166,28.945z M276.048,25.522l-6.601,28.424
					c-0.143,0.598-0.275,1.197-0.404,1.794c-0.123,0.598-0.188,1.086-0.188,1.464c0,0.897,0.201,1.511,0.603,1.841
					s1.049,0.496,1.943,0.496c0.314,0,0.784-0.039,1.402-0.118c0.62-0.078,1.088-0.173,1.402-0.283l-0.353,1.511
					c-1.417,0.567-2.507,0.968-3.271,1.205c-0.765,0.236-1.625,0.354-2.585,0.354c-1.259,0-2.215-0.326-2.868-0.981
					c-0.653-0.653-0.982-1.461-0.982-2.421c0-0.361,0.038-0.739,0.109-1.134c0.07-0.394,0.169-0.89,0.294-1.488l5.754-24.876
					c0.109-0.489,0.186-0.827,0.226-1.016c0.037-0.188,0.059-0.425,0.059-0.708c0-0.567-0.096-1.004-0.284-1.312
					c-0.189-0.307-0.459-0.54-0.808-0.697c-0.33-0.142-0.749-0.236-1.256-0.283c-0.506-0.047-1.021-0.102-1.542-0.165l0.33-1.44
					l8.783-0.52L276.048,25.522z"/>
			</defs>
			<clipPath id="SVGID_2_">
				<use xlink:href="#SVGID_11_"  overflow="visible"/>
			</clipPath>
			
				<ellipse transform="matrix(0.9799 0.1996 -0.1996 0.9799 10.2702 -16.2644)" opacity="0.5" clip-path="url(#SVGID_2_)" cx="85.785" cy="42.795" rx="16.117" ry="19.139"/>
		</g>
		<path fill="#97C83C" d="M43.953,8.714c0,0,6.295-2.77,17.375,0c11.081,2.77,21.909,9.066,21.909,9.066s-14.354,4.281-32.063-1.357
			C44.644,14.344,43.953,8.714,43.953,8.714z"/>
		<path fill="#97C83C" d="M74.662,24.398c0,0,4.295-1.212,6.057-3.228c1.763-2.015,2.519-3.391,2.519-3.391s0.881,4.461-2.015,7.388
			C78.326,28.096,74.662,24.398,74.662,24.398z"/>
		<linearGradient id="SVGID_4_" gradientUnits="userSpaceOnUse" x1="77.7266" y1="23.7642" x2="77.7266" y2="61.8252">
			<stop  offset="0" style="stop-color:#97C83C"/>
			<stop  offset="1" style="stop-color:#507723"/>
		</linearGradient>
		<path fill="url(#SVGID_4_)" d="M93.519,46.012c-2.11,10.356-10.89,17.313-19.613,15.536c-8.72-1.777-14.082-11.614-11.971-21.971
			c2.11-10.356,10.892-17.313,19.613-15.536C90.27,25.818,95.629,35.655,93.519,46.012z"/>
		<path opacity="0.5" d="M82.042,24.155c0,0-0.567,0.667-1.764,1.013c-1.196,0.347-2.234,0-2.234,0s1.982,1.417,4.124,0.347
			C83.971,24.612,82.042,24.155,82.042,24.155z"/>
	</g>
</g>
<g id="Layer_2">
</g>
</svg>
