<?xml version="1.0" encoding="UTF-8" standalone="no"?>
<svg width="126px" height="91px" viewBox="0 0 126 91" version="1.1" xmlns="http://www.w3.org/2000/svg" xmlns:xlink="http://www.w3.org/1999/xlink" xmlns:sketch="http://www.bohemiancoding.com/sketch/ns">
    <!-- Generator: Sketch 3.3.3 (12072) - http://www.bohemiancoding.com/sketch -->
    <title>olives</title>
    <desc>Created with Sketch.</desc>
    <defs></defs>
    <g id="Page-1" stroke="none" stroke-width="1" fill="none" fill-rule="evenodd" sketch:type="MSPage">
        <g id="header-section" sketch:type="MSArtboardGroup" transform="translate(-657.000000, -211.000000)" stroke="#FFFFFF" stroke-width="5" stroke-linecap="round" stroke-linejoin="round">
            <path d="M660,265.838953 C660,265.838953 711.176299,240.324653 756.522387,277.568042 M693.530193,266.880617 C693.530193,266.880617 695.473597,257.6935 703.895013,257.775123 C712.316429,257.856746 713.288131,267.901552 713.288131,267.901552 M730.812451,279.182363 C733.174334,287.158092 729.633452,295.240061 722.902797,297.232697 C716.172142,299.22663 708.80146,294.377189 706.439576,286.400165 C704.076397,278.424436 707.618575,270.343763 714.34923,268.349831 C721.079885,266.357194 728.450567,271.206634 730.812451,279.182363 L730.812451,279.182363 Z M699.167359,285.372752 C696.214681,293.150254 688.50196,297.434811 681.938437,294.944663 C675.376211,292.45322 672.449445,284.130269 675.400827,276.352767 C678.353505,268.575265 686.064931,264.290708 692.628454,266.782152 C699.191976,269.273595 702.118742,277.59525 699.167359,285.372752 L699.167359,285.372752 Z M676.919273,260.114981 C676.919273,260.114981 676.36346,238.370884 684.616448,227.034362 C692.869436,215.69784 710.528498,214.078337 710.528498,214.078337 C710.528498,214.078337 705.062351,218.936847 693.719351,230.92117 C682.376351,242.905493 676.919273,260.114981 676.919273,260.114981 L676.919273,260.114981 Z M689.951739,257.900796 C689.951739,257.900796 698.106261,237.736039 710.192937,230.627068 C722.280908,223.518097 739.122445,229.068458 739.122445,229.068458 C739.122445,229.068458 732.172833,231.347423 716.99485,237.818958 C701.815571,244.291788 689.951739,257.900796 689.951739,257.900796 L689.951739,257.900796 Z M708.105721,256.605194 C708.105721,256.605194 722.433789,240.241734 736.18661,237.500239 C749.938135,234.758744 764.020039,245.536862 764.020039,245.536862 C764.020039,245.536862 756.707658,245.40471 740.245733,246.527998 C723.782512,247.651285 708.105721,256.605194 708.105721,256.605194 L708.105721,256.605194 Z M723.770851,260.289887 C723.770851,260.289887 742.945768,250.023533 756.781507,252.303794 C770.618542,254.582758 780,269.629886 780,269.629886 C780,269.629886 773.203269,266.92985 757.400805,262.181467 C741.597046,257.433084 723.770851,260.289887 723.770851,260.289887 L723.770851,260.289887 Z M736.062232,264.13394 C736.062232,264.13394 737.318967,281.969204 744.964317,290.595326 C752.608372,299.221447 767.185196,299.156667 767.185196,299.156667 C767.185196,299.156667 762.330573,295.611899 752.106974,286.699449 C741.883374,277.785704 736.062232,264.13394 736.062232,264.13394 L736.062232,264.13394 Z" id="olives" sketch:type="MSShapeGroup"></path>
        </g>
    </g>
</svg>